<svg width="352" height="128" xmlns="http://www.w3.org/2000/svg">
 <g >
  <rect fill="#222" y="0" x="0" width="352" height="128" />

  <rect fill="#666"  y="0" x="0" width="65" height="27" />
  <rect fill="#666"  y="37" x="0" width="65" height="27" />
  <rect fill="#666"  y="64" x="0" width="65" height="27" />
  <rect fill="#666"  y="101" x="0" width="65" height="27" />

  <rect fill="#666"  y="0" x="95" width="66" height="27" />
  <rect fill="#666"  y="37" x="95" width="66" height="27" />
  <rect fill="#666"  y="64" x="95" width="66" height="27" />
  <rect fill="#666"  y="101" x="95" width="66" height="27" />
  
  <rect fill="#666"  y="0" x="191" width="66" height="27" />
  <rect fill="#666"  y="37" x="191" width="66" height="27" />
  <rect fill="#666"  y="64" x="191" width="66" height="27" />
  <rect fill="#666"  y="101" x="191" width="66" height="27" />

  <rect fill="#666"  y="0" x="287" width="65" height="27" />
  <rect fill="#666"  y="37" x="287" width="65" height="27" />
  <rect fill="#666"  y="64" x="287" width="65" height="27" />
  <rect fill="#666"  y="101" x="287" width="65" height="27" />

  <rect stroke="#fff" fill="none" y="0" x="0" width="32" height="32" opacity="0.1" />
  <rect stroke="#fff" fill="none" y="0" x="32" width="32" height="32" opacity="0.1" />
  <rect stroke="#fff" fill="none" y="0" x="64" width="32" height="32" opacity="0.1" />
  <rect stroke="#fff" fill="none" y="0" x="96" width="32" height="32" opacity="0.1" />
  <rect stroke="#fff" fill="none" y="0" x="128" width="32" height="32" opacity="0.1" />
  <rect stroke="#fff" fill="none" y="0" x="160" width="32" height="32" opacity="0.1" />
  <rect stroke="#fff" fill="none" y="0" x="192" width="32" height="32" opacity="0.1" />
  <rect stroke="#fff" fill="none" y="0" x="224" width="32" height="32" opacity="0.1" />
  <rect stroke="#fff" fill="none" y="0" x="256" width="32" height="32" opacity="0.1" />
  <rect stroke="#fff" fill="none" y="0" x="288" width="32" height="32" opacity="0.1" />
  <rect stroke="#fff" fill="none" y="0" x="320" width="32" height="32" opacity="0.1" />
  
  <rect stroke="#fff" fill="none" y="32" x="0" width="32" height="32" opacity="0.1" />
  <rect stroke="#fff" fill="none" y="32" x="32" width="32" height="32" opacity="0.1" />
  <rect stroke="#fff" fill="none" y="32" x="64" width="32" height="32" opacity="0.1" />
  <rect stroke="#fff" fill="none" y="32" x="96" width="32" height="32" opacity="0.1" />
  <rect stroke="#fff" fill="none" y="32" x="128" width="32" height="32" opacity="0.1" />
  <rect stroke="#fff" fill="none" y="32" x="160" width="32" height="32" opacity="0.1" />
  <rect stroke="#fff" fill="none" y="32" x="192" width="32" height="32" opacity="0.1" />
  <rect stroke="#fff" fill="none" y="32" x="224" width="32" height="32" opacity="0.1" />
  <rect stroke="#fff" fill="none" y="32" x="256" width="32" height="32" opacity="0.1" />
  <rect stroke="#fff" fill="none" y="32" x="288" width="32" height="32" opacity="0.1" />
  <rect stroke="#fff" fill="none" y="32" x="320" width="32" height="32" opacity="0.1" />
  
  <rect stroke="#fff" fill="none" y="64" x="0" width="32" height="32" opacity="0.1" />
  <rect stroke="#fff" fill="none" y="64" x="32" width="32" height="32" opacity="0.1" />
  <rect stroke="#fff" fill="none" y="64" x="64" width="32" height="32" opacity="0.1" />
  <rect stroke="#fff" fill="none" y="64" x="96" width="32" height="32" opacity="0.1" />
  <rect stroke="#fff" fill="none" y="64" x="128" width="32" height="32" opacity="0.1" />
  <rect stroke="#fff" fill="none" y="64" x="160" width="32" height="32" opacity="0.1" />
  <rect stroke="#fff" fill="none" y="64" x="192" width="32" height="32" opacity="0.1" />
  <rect stroke="#fff" fill="none" y="64" x="224" width="32" height="32" opacity="0.1" />
  <rect stroke="#fff" fill="none" y="64" x="256" width="32" height="32" opacity="0.1" />
  <rect stroke="#fff" fill="none" y="64" x="288" width="32" height="32" opacity="0.1" />
  <rect stroke="#fff" fill="none" y="64" x="320" width="32" height="32" opacity="0.1" />
  
  <rect stroke="#fff" fill="none" y="96" x="0" width="32" height="32" opacity="0.1" />
  <rect stroke="#fff" fill="none" y="96" x="32" width="32" height="32" opacity="0.1" />
  <rect stroke="#fff" fill="none" y="96" x="64" width="32" height="32" opacity="0.1" />
  <rect stroke="#fff" fill="none" y="96" x="96" width="32" height="32" opacity="0.1" />
  <rect stroke="#fff" fill="none" y="96" x="128" width="32" height="32" opacity="0.1" />
  <rect stroke="#fff" fill="none" y="96" x="160" width="32" height="32" opacity="0.1" />
  <rect stroke="#fff" fill="none" y="96" x="192" width="32" height="32" opacity="0.1" />
  <rect stroke="#fff" fill="none" y="96" x="224" width="32" height="32" opacity="0.1" />
  <rect stroke="#fff" fill="none" y="96" x="256" width="32" height="32" opacity="0.1" />
  <rect stroke="#fff" fill="none" y="96" x="288" width="32" height="32" opacity="0.1" />
  <rect stroke="#fff" fill="none" y="96" x="320" width="32" height="32" opacity="0.1" />

  <rect fill="#fff"  y="0" x="78" width="1" height="128" />
  <rect fill="#fff"  y="0" x="81" width="1" height="128" />

  <rect fill="#fff"  y="0" x="174" width="1" height="128" />
  <rect fill="#fff"  y="0" x="177" width="1" height="128" />

  <rect fill="#fff"  y="0" x="270" width="1" height="128" />
  <rect fill="#fff"  y="0" x="273" width="1" height="128" />

  <rect fill="#fff"  y="31.5" x="0" width="64" height="1" />
  <rect fill="#fff"  y="95.5" x="0" width="64" height="1" />
  <rect fill="#fff"  y="31.5" x="96" width="64" height="1" />
  <rect fill="#fff"  y="95.5" x="96" width="64" height="1" />
  <rect fill="#fff"  y="31.5" x="192" width="64" height="1" />
  <rect fill="#fff"  y="95.5" x="192" width="64" height="1" />
  <rect fill="#fff"  y="31.5" x="288" width="64" height="1" />
  <rect fill="#fff"  y="95.5" x="288" width="64" height="1" />  
 </g>
</svg>